<?xml version="1.0" encoding="iso-8859-1"?>
<!-- Generator: Adobe Illustrator 19.0.0, SVG Export Plug-In . SVG Version: 6.00 Build 0)  -->
<svg version="1.1" id="Layer_1" xmlns="http://www.w3.org/2000/svg" xmlns:xlink="http://www.w3.org/1999/xlink" x="0px" y="0px"
	 viewBox="0 0 512 512" style="enable-background:new 0 0 512 512;" xml:space="preserve">
<g>
	<g>
		<path d="M503.658,448.391V282.015l-23.984-8.306V87.593H256.521v130.503l-43.875,15.194L199.405,47.967h-62.827l-8.592,214.643
			l-16.892,5.85L95.338,47.967H32.511L16.487,448.391H0v15.642h512v-15.642H503.658z M272.163,103.234h191.87v165.058
			l-176.228-61.031l-15.642,5.417V103.234z M151.606,63.609h33.234l1.714,23.984h-35.909L151.606,63.609z M150.019,103.234h37.652
			l1.714,23.984h-40.327L150.019,103.234z M148.433,142.859h42.071l0.596,8.342h-43.001L148.433,142.859z M147.473,166.843h44.745
			l5.127,71.746l-53.487,18.524L147.473,166.843z M47.539,63.609h33.235l1.714,23.984H46.579L47.539,63.609z M45.954,103.234h37.651
			l1.714,23.984H44.995L45.954,103.234z M44.366,142.919l42.1,0.332l0.568,7.951h-43L44.366,142.919z M71.951,448.391h-39.81
			l11.265-281.487l44.774,0.357l7.61,106.499l-23.84,8.256V448.391z M320.13,448.391H119.919v-9.385H320.13V448.391z
			 M320.13,399.381h-191.87v15.642h191.87v8.342H119.919v-32.326h191.87v-15.642h-191.87v-8.342H320.13V399.381z M456.733,448.391
			h-88.635v-16.684h88.635V448.391z M456.733,416.065h-88.635v-8.342h88.635V416.065z M488.016,448.391h-15.642v-56.31H352.456
			v56.31h-16.684v-96.978H104.277v96.978H87.593V293.152l200.212-69.338l200.212,69.338V448.391z"/>
	</g>
</g>
<g>
	<g>
		<path d="M280.362,111.656v71.677h175.743v-71.677H280.362z M320.13,167.691h-24.127v-8.147h24.127V167.691z M400.424,167.691
			h-64.652v-8.147h64.652V167.691z M440.464,167.691h-24.399v-8.147h24.399V167.691z M440.464,143.902h-144.46v-16.605h144.46
			V143.902z"/>
	</g>
</g>
<g>
	<g>
		<path d="M104.251,295.773v47.662h231.779v-47.662H104.251z M167.886,327.794h-47.993v-16.379h47.993V327.794z M256.521,327.794
			h-72.994v-16.379h72.994V327.794z M320.388,327.794h-48.225v-16.379h48.225V327.794z"/>
	</g>
</g>
<g>
	<g>
		<path d="M352.408,295.773v79.682h119.708v-79.682H352.408z M384.782,359.814H368.05v-48.399h16.732V359.814z M424.407,359.814
			h-23.984v-48.399h23.984V359.814z M456.475,359.814h-16.426v-48.399h16.426V359.814z"/>
	</g>
</g>
<g>
	<g>
		<path d="M310.598,255.479c-3.319-9.17-12.113-15.742-22.415-15.742c-10.303,0-19.095,6.572-22.414,15.742h-57.215v15.642h57.032
			c3.166,9.449,12.096,16.279,22.598,16.279c10.501,0,19.431-6.83,22.597-16.279h57.317v-15.642H310.598z M288.183,271.758
			c-4.516,0-8.19-3.674-8.19-8.19s3.675-8.19,8.19-8.19c4.515,0,8.19,3.674,8.19,8.19
			C296.373,268.085,292.699,271.758,288.183,271.758z"/>
	</g>
</g>
<g>
</g>
<g>
</g>
<g>
</g>
<g>
</g>
<g>
</g>
<g>
</g>
<g>
</g>
<g>
</g>
<g>
</g>
<g>
</g>
<g>
</g>
<g>
</g>
<g>
</g>
<g>
</g>
<g>
</g>
</svg>
